<mxfile host="app.diagrams.net" agent="Mozilla/5.0 (X11; Linux x86_64) AppleWebKit/537.36 (KHTML, like Gecko) Chrome/130.0.0.0 Safari/537.36" version="25.0.3">
  <diagram name="PÃ¡gina-1" id="HypUTlioQ51MQLGUtJ6T">
    <mxGraphModel dx="1595" dy="660" grid="0" gridSize="10" guides="1" tooltips="1" connect="0" arrows="0" fold="1" page="0" pageScale="1" pageWidth="827" pageHeight="1169" math="0" shadow="0">
      <root>
        <mxCell id="0" />
        <mxCell id="1" parent="0" />
        <mxCell id="4" value="Processing" style="whiteSpace=wrap;strokeWidth=2;" parent="1" vertex="1">
          <mxGeometry x="131" y="209" width="106" height="47" as="geometry" />
        </mxCell>
        <mxCell id="7" value="Filtering" style="rhombus;strokeWidth=2;whiteSpace=wrap;" parent="1" vertex="1">
          <mxGeometry x="311" y="180" width="108" height="108" as="geometry" />
        </mxCell>
        <mxCell id="13" value="" style="curved=1;startArrow=none;endArrow=block;" parent="1" edge="1">
          <mxGeometry relative="1" as="geometry">
            <Array as="points">
              <mxPoint x="-91" y="233.86" />
            </Array>
            <mxPoint x="-101" y="233.86" as="sourcePoint" />
            <mxPoint x="-51" y="233.86" as="targetPoint" />
          </mxGeometry>
        </mxCell>
        <mxCell id="sAcfOVrOT1R59Ra_GKF8-24" value="&lt;span style=&quot;color: rgb(0, 0, 0); font-family: Helvetica; font-size: 12px; font-style: normal; font-variant-ligatures: normal; font-variant-caps: normal; font-weight: 400; letter-spacing: normal; orphans: 2; text-align: center; text-indent: 0px; text-transform: none; widows: 2; word-spacing: 0px; -webkit-text-stroke-width: 0px; white-space: normal; background-color: rgb(251, 251, 251); text-decoration-thickness: initial; text-decoration-style: initial; text-decoration-color: initial; display: inline !important; float: none;&quot;&gt;Pdf&lt;/span&gt;" style="shape=note;whiteSpace=wrap;html=1;backgroundOutline=1;darkOpacity=0.05;" vertex="1" parent="1">
          <mxGeometry x="-190" y="184" width="80" height="100" as="geometry" />
        </mxCell>
        <mxCell id="sAcfOVrOT1R59Ra_GKF8-31" value="" style="curved=1;startArrow=none;endArrow=block;" edge="1" parent="1">
          <mxGeometry relative="1" as="geometry">
            <Array as="points">
              <mxPoint x="81" y="233.8" />
            </Array>
            <mxPoint x="71" y="233.8" as="sourcePoint" />
            <mxPoint x="121" y="233.8" as="targetPoint" />
          </mxGeometry>
        </mxCell>
        <mxCell id="sAcfOVrOT1R59Ra_GKF8-33" value="" style="curved=1;startArrow=none;endArrow=block;" edge="1" parent="1">
          <mxGeometry relative="1" as="geometry">
            <Array as="points" />
            <mxPoint x="251" y="233.66" as="sourcePoint" />
            <mxPoint x="301" y="233.66" as="targetPoint" />
          </mxGeometry>
        </mxCell>
        <mxCell id="sAcfOVrOT1R59Ra_GKF8-35" value="" style="curved=1;startArrow=none;endArrow=block;" edge="1" parent="1">
          <mxGeometry relative="1" as="geometry">
            <Array as="points" />
            <mxPoint x="431" y="233.86" as="sourcePoint" />
            <mxPoint x="481" y="262.5" as="targetPoint" />
          </mxGeometry>
        </mxCell>
        <mxCell id="sAcfOVrOT1R59Ra_GKF8-36" value="" style="curved=1;startArrow=none;endArrow=block;" edge="1" parent="1">
          <mxGeometry relative="1" as="geometry">
            <Array as="points" />
            <mxPoint x="431" y="232.5" as="sourcePoint" />
            <mxPoint x="481" y="202.5" as="targetPoint" />
          </mxGeometry>
        </mxCell>
        <mxCell id="sAcfOVrOT1R59Ra_GKF8-37" value="TableGpt2" style="whiteSpace=wrap;strokeWidth=2;" vertex="1" parent="1">
          <mxGeometry x="491" y="180" width="106" height="47" as="geometry" />
        </mxCell>
        <mxCell id="sAcfOVrOT1R59Ra_GKF8-38" value="&lt;span style=&quot;color: rgb(0, 0, 0); font-family: Helvetica; font-size: 12px; font-style: normal; font-variant-ligatures: normal; font-variant-caps: normal; font-weight: 400; letter-spacing: normal; orphans: 2; text-align: center; text-indent: 0px; text-transform: none; widows: 2; word-spacing: 0px; -webkit-text-stroke-width: 0px; white-space: normal; background-color: rgb(251, 251, 251); text-decoration-thickness: initial; text-decoration-style: initial; text-decoration-color: initial; display: inline !important; float: none;&quot;&gt;txt&lt;/span&gt;" style="shape=note;whiteSpace=wrap;html=1;backgroundOutline=1;darkOpacity=0.05;" vertex="1" parent="1">
          <mxGeometry x="669" y="185.07" width="76" height="97.87" as="geometry" />
        </mxCell>
        <mxCell id="sAcfOVrOT1R59Ra_GKF8-40" value="LLM2?" style="whiteSpace=wrap;strokeWidth=2;" vertex="1" parent="1">
          <mxGeometry x="491" y="242.5" width="106" height="47" as="geometry" />
        </mxCell>
        <mxCell id="sAcfOVrOT1R59Ra_GKF8-44" value="Preprocessing" style="whiteSpace=wrap;strokeWidth=2;" vertex="1" parent="1">
          <mxGeometry x="131" y="496" width="106" height="47" as="geometry" />
        </mxCell>
        <mxCell id="sAcfOVrOT1R59Ra_GKF8-45" value="Categorization" style="rhombus;strokeWidth=2;whiteSpace=wrap;" vertex="1" parent="1">
          <mxGeometry x="311" y="467" width="108" height="108" as="geometry" />
        </mxCell>
        <mxCell id="sAcfOVrOT1R59Ra_GKF8-46" value="" style="curved=1;startArrow=none;endArrow=block;" edge="1" parent="1">
          <mxGeometry relative="1" as="geometry">
            <Array as="points">
              <mxPoint x="-91" y="520.86" />
            </Array>
            <mxPoint x="-101" y="520.86" as="sourcePoint" />
            <mxPoint x="-51" y="520.86" as="targetPoint" />
          </mxGeometry>
        </mxCell>
        <mxCell id="sAcfOVrOT1R59Ra_GKF8-47" value="&lt;span style=&quot;color: rgb(0, 0, 0); font-family: Helvetica; font-size: 12px; font-style: normal; font-variant-ligatures: normal; font-variant-caps: normal; font-weight: 400; letter-spacing: normal; orphans: 2; text-align: center; text-indent: 0px; text-transform: none; widows: 2; word-spacing: 0px; -webkit-text-stroke-width: 0px; white-space: normal; background-color: rgb(251, 251, 251); text-decoration-thickness: initial; text-decoration-style: initial; text-decoration-color: initial; display: inline !important; float: none;&quot;&gt;Pdf&lt;/span&gt;" style="shape=note;whiteSpace=wrap;html=1;backgroundOutline=1;darkOpacity=0.05;" vertex="1" parent="1">
          <mxGeometry x="-190" y="471" width="80" height="100" as="geometry" />
        </mxCell>
        <mxCell id="sAcfOVrOT1R59Ra_GKF8-50" value="" style="curved=1;startArrow=none;endArrow=block;" edge="1" parent="1">
          <mxGeometry relative="1" as="geometry">
            <Array as="points">
              <mxPoint x="81" y="520.8" />
            </Array>
            <mxPoint x="71" y="520.8" as="sourcePoint" />
            <mxPoint x="121" y="520.8" as="targetPoint" />
          </mxGeometry>
        </mxCell>
        <mxCell id="sAcfOVrOT1R59Ra_GKF8-51" value="" style="curved=1;startArrow=none;endArrow=block;" edge="1" parent="1">
          <mxGeometry relative="1" as="geometry">
            <Array as="points" />
            <mxPoint x="251" y="520.66" as="sourcePoint" />
            <mxPoint x="301" y="520.66" as="targetPoint" />
          </mxGeometry>
        </mxCell>
        <mxCell id="sAcfOVrOT1R59Ra_GKF8-52" value="" style="curved=1;startArrow=none;endArrow=block;" edge="1" parent="1">
          <mxGeometry relative="1" as="geometry">
            <Array as="points" />
            <mxPoint x="431" y="520.86" as="sourcePoint" />
            <mxPoint x="481" y="549.5" as="targetPoint" />
          </mxGeometry>
        </mxCell>
        <mxCell id="sAcfOVrOT1R59Ra_GKF8-53" value="" style="curved=1;startArrow=none;endArrow=block;" edge="1" parent="1">
          <mxGeometry relative="1" as="geometry">
            <Array as="points" />
            <mxPoint x="431" y="519.5" as="sourcePoint" />
            <mxPoint x="481" y="489.5" as="targetPoint" />
          </mxGeometry>
        </mxCell>
        <mxCell id="sAcfOVrOT1R59Ra_GKF8-55" value="&lt;span style=&quot;color: rgb(0, 0, 0); font-family: Helvetica; font-size: 12px; font-style: normal; font-variant-ligatures: normal; font-variant-caps: normal; font-weight: 400; letter-spacing: normal; orphans: 2; text-align: center; text-indent: 0px; text-transform: none; widows: 2; word-spacing: 0px; -webkit-text-stroke-width: 0px; white-space: normal; background-color: rgb(251, 251, 251); text-decoration-thickness: initial; text-decoration-style: initial; text-decoration-color: initial; display: inline !important; float: none;&quot;&gt;txt&lt;/span&gt;" style="shape=note;whiteSpace=wrap;html=1;backgroundOutline=1;darkOpacity=0.05;" vertex="1" parent="1">
          <mxGeometry x="669" y="447" width="60" height="79.75" as="geometry" />
        </mxCell>
        <mxCell id="sAcfOVrOT1R59Ra_GKF8-56" value="" style="curved=1;startArrow=none;endArrow=block;" edge="1" parent="1">
          <mxGeometry relative="1" as="geometry">
            <Array as="points" />
            <mxPoint x="609" y="486.45000000000005" as="sourcePoint" />
            <mxPoint x="659" y="486.45000000000005" as="targetPoint" />
          </mxGeometry>
        </mxCell>
        <mxCell id="sAcfOVrOT1R59Ra_GKF8-57" value="LlaMa3.1" style="whiteSpace=wrap;strokeWidth=2;" vertex="1" parent="1">
          <mxGeometry x="491" y="463.37" width="106" height="47" as="geometry" />
        </mxCell>
        <mxCell id="sAcfOVrOT1R59Ra_GKF8-58" value="Table" style="shape=table;startSize=30;container=1;collapsible=0;childLayout=tableLayout;strokeColor=default;fontSize=16;" vertex="1" parent="1">
          <mxGeometry x="-36" y="193" width="87" height="79" as="geometry" />
        </mxCell>
        <mxCell id="sAcfOVrOT1R59Ra_GKF8-59" value="" style="shape=tableRow;horizontal=0;startSize=0;swimlaneHead=0;swimlaneBody=0;strokeColor=inherit;top=0;left=0;bottom=0;right=0;collapsible=0;dropTarget=0;fillColor=none;points=[[0,0.5],[1,0.5]];portConstraint=eastwest;fontSize=16;" vertex="1" parent="sAcfOVrOT1R59Ra_GKF8-58">
          <mxGeometry y="30" width="87" height="16" as="geometry" />
        </mxCell>
        <mxCell id="sAcfOVrOT1R59Ra_GKF8-60" value="" style="shape=partialRectangle;html=1;whiteSpace=wrap;connectable=0;strokeColor=inherit;overflow=hidden;fillColor=none;top=0;left=0;bottom=0;right=0;pointerEvents=1;fontSize=16;" vertex="1" parent="sAcfOVrOT1R59Ra_GKF8-59">
          <mxGeometry width="29" height="16" as="geometry">
            <mxRectangle width="29" height="16" as="alternateBounds" />
          </mxGeometry>
        </mxCell>
        <mxCell id="sAcfOVrOT1R59Ra_GKF8-61" value="" style="shape=partialRectangle;html=1;whiteSpace=wrap;connectable=0;strokeColor=inherit;overflow=hidden;fillColor=none;top=0;left=0;bottom=0;right=0;pointerEvents=1;fontSize=16;" vertex="1" parent="sAcfOVrOT1R59Ra_GKF8-59">
          <mxGeometry x="29" width="29" height="16" as="geometry">
            <mxRectangle width="29" height="16" as="alternateBounds" />
          </mxGeometry>
        </mxCell>
        <mxCell id="sAcfOVrOT1R59Ra_GKF8-62" value="" style="shape=partialRectangle;html=1;whiteSpace=wrap;connectable=0;strokeColor=inherit;overflow=hidden;fillColor=none;top=0;left=0;bottom=0;right=0;pointerEvents=1;fontSize=16;" vertex="1" parent="sAcfOVrOT1R59Ra_GKF8-59">
          <mxGeometry x="58" width="29" height="16" as="geometry">
            <mxRectangle width="29" height="16" as="alternateBounds" />
          </mxGeometry>
        </mxCell>
        <mxCell id="sAcfOVrOT1R59Ra_GKF8-63" value="" style="shape=tableRow;horizontal=0;startSize=0;swimlaneHead=0;swimlaneBody=0;strokeColor=inherit;top=0;left=0;bottom=0;right=0;collapsible=0;dropTarget=0;fillColor=none;points=[[0,0.5],[1,0.5]];portConstraint=eastwest;fontSize=16;" vertex="1" parent="sAcfOVrOT1R59Ra_GKF8-58">
          <mxGeometry y="46" width="87" height="17" as="geometry" />
        </mxCell>
        <mxCell id="sAcfOVrOT1R59Ra_GKF8-64" value="" style="shape=partialRectangle;html=1;whiteSpace=wrap;connectable=0;strokeColor=inherit;overflow=hidden;fillColor=none;top=0;left=0;bottom=0;right=0;pointerEvents=1;fontSize=16;" vertex="1" parent="sAcfOVrOT1R59Ra_GKF8-63">
          <mxGeometry width="29" height="17" as="geometry">
            <mxRectangle width="29" height="17" as="alternateBounds" />
          </mxGeometry>
        </mxCell>
        <mxCell id="sAcfOVrOT1R59Ra_GKF8-65" value="" style="shape=partialRectangle;html=1;whiteSpace=wrap;connectable=0;strokeColor=inherit;overflow=hidden;fillColor=none;top=0;left=0;bottom=0;right=0;pointerEvents=1;fontSize=16;" vertex="1" parent="sAcfOVrOT1R59Ra_GKF8-63">
          <mxGeometry x="29" width="29" height="17" as="geometry">
            <mxRectangle width="29" height="17" as="alternateBounds" />
          </mxGeometry>
        </mxCell>
        <mxCell id="sAcfOVrOT1R59Ra_GKF8-66" value="" style="shape=partialRectangle;html=1;whiteSpace=wrap;connectable=0;strokeColor=inherit;overflow=hidden;fillColor=none;top=0;left=0;bottom=0;right=0;pointerEvents=1;fontSize=16;" vertex="1" parent="sAcfOVrOT1R59Ra_GKF8-63">
          <mxGeometry x="58" width="29" height="17" as="geometry">
            <mxRectangle width="29" height="17" as="alternateBounds" />
          </mxGeometry>
        </mxCell>
        <mxCell id="sAcfOVrOT1R59Ra_GKF8-67" value="" style="shape=tableRow;horizontal=0;startSize=0;swimlaneHead=0;swimlaneBody=0;strokeColor=inherit;top=0;left=0;bottom=0;right=0;collapsible=0;dropTarget=0;fillColor=none;points=[[0,0.5],[1,0.5]];portConstraint=eastwest;fontSize=16;" vertex="1" parent="sAcfOVrOT1R59Ra_GKF8-58">
          <mxGeometry y="63" width="87" height="16" as="geometry" />
        </mxCell>
        <mxCell id="sAcfOVrOT1R59Ra_GKF8-68" value="" style="shape=partialRectangle;html=1;whiteSpace=wrap;connectable=0;strokeColor=inherit;overflow=hidden;fillColor=none;top=0;left=0;bottom=0;right=0;pointerEvents=1;fontSize=16;" vertex="1" parent="sAcfOVrOT1R59Ra_GKF8-67">
          <mxGeometry width="29" height="16" as="geometry">
            <mxRectangle width="29" height="16" as="alternateBounds" />
          </mxGeometry>
        </mxCell>
        <mxCell id="sAcfOVrOT1R59Ra_GKF8-69" value="" style="shape=partialRectangle;html=1;whiteSpace=wrap;connectable=0;strokeColor=inherit;overflow=hidden;fillColor=none;top=0;left=0;bottom=0;right=0;pointerEvents=1;fontSize=16;" vertex="1" parent="sAcfOVrOT1R59Ra_GKF8-67">
          <mxGeometry x="29" width="29" height="16" as="geometry">
            <mxRectangle width="29" height="16" as="alternateBounds" />
          </mxGeometry>
        </mxCell>
        <mxCell id="sAcfOVrOT1R59Ra_GKF8-70" value="" style="shape=partialRectangle;html=1;whiteSpace=wrap;connectable=0;strokeColor=inherit;overflow=hidden;fillColor=none;top=0;left=0;bottom=0;right=0;pointerEvents=1;fontSize=16;" vertex="1" parent="sAcfOVrOT1R59Ra_GKF8-67">
          <mxGeometry x="58" width="29" height="16" as="geometry">
            <mxRectangle width="29" height="16" as="alternateBounds" />
          </mxGeometry>
        </mxCell>
        <mxCell id="sAcfOVrOT1R59Ra_GKF8-71" value="Image" style="whiteSpace=wrap;strokeWidth=2;" vertex="1" parent="1">
          <mxGeometry x="-36" y="497.51" width="106" height="47" as="geometry" />
        </mxCell>
        <mxCell id="sAcfOVrOT1R59Ra_GKF8-72" value="" style="shape=mxgraph.signs.safety.no;html=1;pointerEvents=1;fillColor=#000000;strokeColor=none;verticalLabelPosition=bottom;verticalAlign=top;align=center;sketch=0;" vertex="1" parent="1">
          <mxGeometry x="495" y="541" width="24" height="24" as="geometry" />
        </mxCell>
        <mxCell id="sAcfOVrOT1R59Ra_GKF8-73" value="Image to text workflow" style="text;html=1;align=center;verticalAlign=middle;resizable=0;points=[];autosize=1;strokeColor=none;fillColor=none;" vertex="1" parent="1">
          <mxGeometry x="-225" y="408" width="137" height="26" as="geometry" />
        </mxCell>
        <mxCell id="sAcfOVrOT1R59Ra_GKF8-74" value="Table to text workflow" style="text;html=1;align=center;verticalAlign=middle;resizable=0;points=[];autosize=1;strokeColor=none;fillColor=none;" vertex="1" parent="1">
          <mxGeometry x="-219" y="116" width="133" height="26" as="geometry" />
        </mxCell>
        <mxCell id="sAcfOVrOT1R59Ra_GKF8-75" value="" style="curved=1;startArrow=none;endArrow=block;" edge="1" parent="1">
          <mxGeometry relative="1" as="geometry">
            <Array as="points" />
            <mxPoint x="604" y="265" as="sourcePoint" />
            <mxPoint x="658" y="266" as="targetPoint" />
          </mxGeometry>
        </mxCell>
        <mxCell id="sAcfOVrOT1R59Ra_GKF8-76" value="" style="curved=1;startArrow=none;endArrow=block;" edge="1" parent="1">
          <mxGeometry relative="1" as="geometry">
            <Array as="points" />
            <mxPoint x="603" y="199" as="sourcePoint" />
            <mxPoint x="658" y="200" as="targetPoint" />
          </mxGeometry>
        </mxCell>
      </root>
    </mxGraphModel>
  </diagram>
</mxfile>
